<svg width="1480" height="1023" viewBox="0 0 1480 1023" fill="none" xmlns="http://www.w3.org/2000/svg">
<g clip-path="url(#clip0_645_11)">
<path d="M1480 0H0V1023H1480V0Z" fill="#00243F"/>
<path d="M204.307 414.923C216.448 361.79 243.395 325.03 349.043 239.218C598.316 36.7482 485.731 39.0292 566.109 -39.5747C646.421 -118.301 775.78 -161.415 861.362 -130.325C946.783 -99.1497 988.108 6.39827 1024.21 89.7676C1060.14 173.221 1090.76 234.703 1096.58 301.578C1102.33 368.329 1083.02 440.765 1084.32 556.598C1085.45 672.516 1107.25 831.955 1035.92 932.604C964.749 1033.17 800.454 1074.94 669.893 1054.08C539.398 1033.34 442.636 949.967 394.938 861.737C347.4 773.422 349.181 679.96 272.103 608.946C194.959 537.809 192.23 468.179 204.307 414.923Z" fill="#074065" fill-opacity="0.41"/>
<path d="M295.857 353.248C305.935 300.057 330.823 263.83 430.214 180.579C664.723 -15.848 556.036 -17.0205 631.239 -93.7841C706.375 -170.673 829.998 -210.148 913.638 -176.165C997.125 -142.103 1040.33 -34.4229 1077.79 50.737C1115.1 135.977 1146.58 198.903 1154.28 266.5C1161.91 333.971 1145.51 406.399 1150.36 523.214C1155.06 640.109 1181.07 801.515 1115.3 900.781C1049.67 999.968 892.258 1037.01 765.486 1011.96C638.78 987.025 542.716 899.988 493.897 809.57C445.23 719.072 444.045 624.906 367.379 550.937C290.646 476.843 285.847 406.564 295.857 353.248Z" fill="#0D537F" fill-opacity="0.41"/>
</g>
<path d="M349.525 1022.11L339.636 997.697C329.577 973.279 309.799 924.445 300.592 875.838C291.555 827.117 293.26 778.737 315.425 730.016C337.59 681.409 380.215 632.575 394.708 583.968C409.2 535.247 395.56 486.867 371.69 438.146C347.82 389.539 313.72 340.704 319.688 292.097C325.655 243.376 371.69 194.996 402.039 146.276C432.559 97.6685 447.222 48.8341 454.724 24.4169L462.055 -0.000244141L0.000195294 -0.000249651L0.000195003 24.4169C0.000194712 48.8341 0.000194129 97.6685 0.00019355 146.276C0.000192969 194.996 0.000192392 243.376 0.000191811 292.097C0.000191231 340.704 0.000190649 389.539 0.000190069 438.146C0.000189488 486.867 0.000188911 535.247 0.00018833 583.968C0.000187751 632.575 0.000187168 681.409 0.000186589 730.016C0.000186008 778.737 0.000185431 827.117 0.00018485 875.838C0.00018427 924.445 0.000183688 973.279 0.000183397 997.697L0.000183105 1022.11L349.525 1022.11Z" fill="url(#paint0_radial_645_11)"/>
<path d="M1218.43 1022.11L1228.32 997.697C1238.38 973.279 1258.16 924.445 1267.36 875.838C1276.4 827.117 1274.7 778.737 1252.53 730.016C1230.37 681.409 1187.74 632.575 1173.25 583.968C1158.76 535.247 1172.4 486.867 1196.27 438.146C1220.14 389.539 1254.24 340.704 1248.27 292.097C1242.3 243.376 1196.27 194.996 1165.92 146.276C1135.4 97.6684 1120.73 48.8341 1113.23 24.4169L1105.9 -0.000244141L1567.96 -0.000238631L1567.96 24.4169C1567.96 48.8341 1567.96 97.6684 1567.96 146.276C1567.96 194.996 1567.96 243.376 1567.96 292.097C1567.96 340.704 1567.96 389.539 1567.96 438.146C1567.96 486.867 1567.96 535.247 1567.96 583.968C1567.96 632.575 1567.96 681.409 1567.96 730.016C1567.96 778.737 1567.96 827.117 1567.96 875.838C1567.96 924.445 1567.96 973.279 1567.96 997.697L1567.96 1022.11L1218.43 1022.11Z" fill="url(#paint1_radial_645_11)"/>
<defs>
<radialGradient id="paint0_radial_645_11" cx="0" cy="0" r="1" gradientUnits="userSpaceOnUse" gradientTransform="translate(231.028 511.057) rotate(-180) scale(231.027 511.057)">
<stop stop-color="#0D95DD"/>
<stop offset="1" stop-color="#0D95DD" stop-opacity="0"/>
</radialGradient>
<radialGradient id="paint1_radial_645_11" cx="0" cy="0" r="1" gradientUnits="userSpaceOnUse" gradientTransform="translate(1336.93 511.057) scale(231.027 511.057)">
<stop stop-color="#0D95DD"/>
<stop offset="1" stop-color="#0D95DD" stop-opacity="0"/>
</radialGradient>
<clipPath id="clip0_645_11">
<rect width="1480" height="1023" fill="white"/>
</clipPath>
</defs>
</svg>
