<svg width="1480" height="2051" viewBox="0 0 1480 2051" fill="none" xmlns="http://www.w3.org/2000/svg">
<rect x="0.0791016" y="3.22656" width="1479.92" height="2045.73" fill="url(#paint0_radial_638_10)"/>
<path d="M341.731 2051L332.063 2002.08C322.228 1953.16 302.891 1855.32 293.889 1757.94C285.054 1660.33 286.721 1563.4 308.392 1465.79C330.062 1368.41 371.737 1270.57 385.906 1173.19C400.076 1075.58 386.74 978.649 363.402 881.039C340.064 783.656 306.725 685.818 312.559 588.435C318.394 490.824 363.402 393.896 393.074 296.286C422.913 198.903 437.249 101.065 444.584 52.1458L451.752 3.22681L0.00020698 3.2268L0.00020641 52.1457C0.00020584 101.065 0.000204699 198.903 0.000203564 296.286C0.000202426 393.896 0.000201296 490.824 0.000200157 588.435C0.000199022 685.818 0.000197881 783.656 0.000196746 881.039C0.000195608 978.649 0.000194478 1075.58 0.00019334 1173.19C0.000192204 1270.57 0.000191064 1368.41 0.000189928 1465.79C0.00018879 1563.4 0.00018766 1660.33 0.000186522 1757.94C0.000185387 1855.32 0.000184246 1953.16 0.000183676 2002.08L0.000183105 2051L341.731 2051Z" fill="url(#paint1_radial_638_10)"/>
<path d="M1130.68 2048L1140.41 1999.08C1150.3 1950.16 1169.74 1852.32 1178.8 1754.94C1187.68 1657.33 1186 1560.4 1164.21 1462.79C1142.42 1365.41 1100.51 1267.57 1086.26 1170.19C1072.01 1072.58 1085.42 975.649 1108.89 878.039C1132.36 780.656 1165.89 682.818 1160.02 585.435C1154.15 487.824 1108.89 390.896 1079.05 293.286C1049.04 195.903 1034.63 98.0648 1027.25 49.1458L1020.04 0.226807L1474.34 0.226812L1474.34 49.1458C1474.34 98.0648 1474.34 195.903 1474.34 293.286C1474.34 390.896 1474.34 487.824 1474.34 585.435C1474.34 682.818 1474.34 780.656 1474.34 878.039C1474.34 975.649 1474.34 1072.58 1474.34 1170.19C1474.34 1267.57 1474.34 1365.41 1474.34 1462.79C1474.34 1560.4 1474.34 1657.33 1474.34 1754.94C1474.34 1852.32 1474.34 1950.16 1474.34 1999.08L1474.34 2048L1130.68 2048Z" fill="url(#paint2_radial_638_10)"/>
<defs>
<radialGradient id="paint0_radial_638_10" cx="0" cy="0" r="1" gradientUnits="userSpaceOnUse" gradientTransform="translate(745.912 1107.95) rotate(90.4431) scale(759.367 848.396)">
<stop stop-color="#004E89" stop-opacity="0.77"/>
<stop offset="0.775" stop-color="#00243F"/>
</radialGradient>
<radialGradient id="paint1_radial_638_10" cx="0" cy="0" r="1" gradientUnits="userSpaceOnUse" gradientTransform="translate(225.876 1027.11) rotate(-180) scale(225.876 1023.89)">
<stop stop-color="#0D95DD"/>
<stop offset="1" stop-color="#0D95DD" stop-opacity="0"/>
</radialGradient>
<radialGradient id="paint2_radial_638_10" cx="0" cy="0" r="1" gradientUnits="userSpaceOnUse" gradientTransform="translate(1247.19 1024.11) scale(227.151 1023.89)">
<stop stop-color="#0D95DD"/>
<stop offset="1" stop-color="#0D95DD" stop-opacity="0"/>
</radialGradient>
</defs>
</svg>
