<svg width="1480" height="1056" viewBox="0 0 1480 1056" fill="none" xmlns="http://www.w3.org/2000/svg">
<g clip-path="url(#clip0_496_13)">
<path d="M1480 0H0V1056H1480V0Z" fill="#00243F"/>
<path d="M1480 904.288C1392.19 899.008 1304.37 893.904 1218.86 859.936C1133.52 826.144 1050.47 763.664 1023.83 672.144C997.027 580.448 1026.46 459.712 970.387 396.176C914.475 332.816 772.889 326.832 702.671 270.336C632.618 213.84 633.769 106.832 635.084 0H1480V904.288Z" fill="#022D4B"/>
<path d="M1480 791.296C1403.2 786.72 1326.24 782.144 1251.59 752.576C1176.76 722.832 1104.24 668.272 1080.73 588.016C1057.38 507.936 1083.2 402.16 1034.19 346.72C985.187 291.28 861.196 286 799.858 236.544C738.52 187.088 739.671 93.632 740.658 0H1480V791.296Z" fill="#074065"/>
<path d="M1480 678.128C1414.06 674.256 1348.28 670.384 1284.15 645.04C1220.18 619.696 1157.85 572.704 1137.79 504.064C1117.73 435.248 1139.93 344.784 1097.83 297.088C1055.9 249.568 949.667 245.168 897.045 202.752C844.422 160.336 845.409 80.256 846.396 0H1480V678.128Z" fill="#0D537F"/>
<path d="M1480 565.136C1425.08 561.968 1370.15 558.624 1316.87 537.504C1263.43 516.384 1211.63 477.312 1194.85 420.112C1178.08 362.736 1196.5 287.232 1161.47 247.632C1126.44 208.032 1037.97 204.16 994.231 168.96C950.325 133.584 951.147 66.88 951.969 0H1480V565.136Z" fill="#12689A"/>
<path d="M1480 452.144C1436.09 449.504 1392.19 446.864 1349.43 429.968C1306.68 413.072 1265.24 381.92 1251.92 335.984C1238.43 290.224 1253.23 229.856 1225.28 198.176C1197.16 166.32 1126.44 163.328 1091.42 135.168C1056.23 106.832 1056.88 53.504 1057.54 0H1480V452.144Z" fill="#147EB6"/>
<path d="M1480 339.152C1447.11 337.216 1414.06 335.28 1382.16 322.432C1350.09 309.76 1319.01 286.352 1308.98 252.032C1298.95 217.712 1309.96 172.304 1288.92 148.544C1267.87 124.784 1214.75 122.496 1188.44 101.376C1162.29 80.256 1162.62 40.128 1163.12 0H1480V339.152Z" fill="#1294D3"/>
<path d="M1480 225.984C1457.96 224.752 1436.09 223.52 1414.72 215.072C1393.34 206.624 1372.62 190.96 1365.88 168.08C1359.3 145.024 1366.7 114.928 1352.56 99.088C1338.58 83.248 1303.22 81.664 1285.63 67.584C1268.2 53.504 1268.52 26.752 1268.85 0H1480V225.984Z" fill="#0AABF0"/>
<path d="M1480 112.992C1468.98 112.464 1457.96 111.76 1447.44 107.536C1436.75 103.312 1426.39 95.392 1422.94 83.952C1419.65 72.512 1423.27 57.376 1416.36 49.456C1409.29 41.536 1391.53 40.832 1382.81 33.792C1374.1 26.752 1374.26 13.376 1374.43 0H1480V112.992Z" fill="#01B7FF"/>
<path d="M0 151.712C64.2978 235.664 128.431 319.792 216.409 342.848C304.387 366.08 416.209 328.592 460.116 378.224C504.022 427.856 480.178 564.608 538.884 636.944C597.427 709.456 738.849 717.376 803.476 776.512C868.267 835.648 856.591 945.824 844.915 1056H0V151.712Z" fill="#022D4B"/>
<path d="M0 264.704C56.24 338.272 112.48 411.664 189.44 432.08C266.4 452.32 364.08 419.584 402.56 462.88C441.04 506.352 420.156 626.032 471.462 689.392C522.769 752.752 646.431 759.792 703.164 811.536C759.733 863.28 749.538 959.552 739.342 1056H0V264.704Z" fill="#074065"/>
<path d="M0 377.872C48.1822 440.704 96.3644 503.712 162.307 521.136C228.413 538.56 312.116 510.4 345.004 547.712C378.058 584.848 360.133 687.456 404.04 741.84C448.111 796.048 554.013 802.032 602.689 846.384C651.2 890.736 642.484 973.456 633.604 1056H0V377.872Z" fill="#0D537F"/>
<path d="M0 490.864C40.1244 543.312 80.2489 595.76 135.338 610.368C190.262 624.8 260.151 601.392 287.613 632.368C315.076 663.344 300.111 748.88 336.782 794.112C373.453 839.344 461.76 844.448 502.213 881.408C542.667 918.368 535.431 987.184 528.031 1056H0V490.864Z" fill="#12689A"/>
<path d="M0 603.856C32.0667 645.92 64.2978 687.808 108.204 699.424C152.276 711.04 208.022 692.384 230.058 717.2C251.929 741.84 240.089 810.304 269.36 846.56C298.796 882.64 369.342 886.688 401.738 916.256C434.133 945.824 428.378 1000.91 422.458 1056H0V603.856Z" fill="#147EB6"/>
<path d="M0 716.848C24.1733 748.352 48.1822 779.856 81.2355 788.656C114.124 797.28 156.058 783.2 172.502 801.856C188.947 820.512 180.067 871.728 202.102 898.832C224.138 926.112 277.089 929.104 301.262 951.28C325.6 973.456 321.16 1014.64 316.884 1056H0V716.848Z" fill="#1294D3"/>
<path d="M0 830.016C16.1156 850.96 32.0667 871.904 54.1022 877.712C76.1378 883.52 104.093 874.192 114.947 886.512C125.964 899.008 120.044 933.152 134.68 951.28C149.316 969.408 184.671 971.344 200.951 986.128C217.067 1000.91 214.107 1028.54 211.147 1056H0V830.016Z" fill="#0AABF0"/>
<path d="M0 943.008C8.05778 953.392 16.1156 963.952 27.1333 966.944C37.9867 969.76 51.9644 965.008 57.5556 971.344C62.9822 977.504 60.0222 994.576 67.4222 1003.55C74.6578 1012.7 92.4178 1013.76 100.476 1021.15C108.533 1028.54 107.053 1042.27 105.573 1056H0V943.008Z" fill="#01B7FF"/>
</g>
<defs>
<clipPath id="clip0_496_13">
<rect width="1480" height="1056" fill="white"/>
</clipPath>
</defs>
</svg>
