<svg width="391" height="606" viewBox="0 0 391 606" fill="none" xmlns="http://www.w3.org/2000/svg">
<g clip-path="url(#clip0_496_13)">
<path d="M391 0H0V606H391V0Z" fill="#00243F"/>
<path d="M391 518.938C367.801 515.908 344.602 512.979 322.01 493.486C299.463 474.094 277.523 438.239 270.485 385.719C263.404 333.098 271.18 263.812 256.366 227.351C241.595 190.991 204.189 187.557 185.638 155.136C167.131 122.715 167.435 61.307 167.783 0H391V518.938Z" fill="#022D4B"/>
<path d="M391 454.096C370.712 451.47 350.38 448.844 330.656 431.876C310.889 414.807 291.73 383.497 285.517 337.441C279.348 291.486 286.169 230.785 273.222 198.97C260.276 167.155 227.519 164.125 211.314 135.744C195.109 107.363 195.413 53.732 195.674 0H391V454.096Z" fill="#074065"/>
<path d="M391 389.153C373.579 386.931 356.201 384.709 339.258 370.165C322.358 355.621 305.893 328.654 300.592 289.264C295.292 249.773 301.157 197.859 290.035 170.488C278.957 143.218 250.892 140.693 236.99 116.352C223.087 92.011 223.348 46.056 223.609 0H391V389.153Z" fill="#0D537F"/>
<path d="M391 324.311C376.49 322.493 361.98 320.574 347.904 308.454C333.784 296.334 320.099 273.912 315.668 241.087C311.236 208.161 316.102 164.832 306.849 142.107C297.595 119.382 274.222 117.16 262.666 96.96C251.066 76.659 251.283 38.38 251.5 0H391V324.311Z" fill="#12689A"/>
<path d="M391 259.469C379.4 257.954 367.801 256.439 356.505 246.743C345.21 237.047 334.262 219.17 330.743 192.809C327.18 166.549 331.09 131.906 323.705 113.726C316.276 95.445 297.595 93.728 288.341 77.568C279.044 61.307 279.218 30.704 279.391 0H391V259.469Z" fill="#147EB6"/>
<path d="M391 194.627C382.311 193.516 373.579 192.405 365.151 185.032C356.679 177.76 348.468 164.327 345.818 144.632C343.168 124.937 346.079 98.879 340.518 85.244C334.957 71.609 320.924 70.296 313.973 58.176C307.066 46.056 307.153 23.028 307.283 0H391V194.627Z" fill="#1294D3"/>
<path d="M391 129.684C385.179 128.977 379.4 128.27 373.753 123.422C368.105 118.574 362.631 109.585 360.85 96.455C359.112 83.224 361.067 65.953 357.331 56.863C353.638 47.773 344.297 46.864 339.649 38.784C335.044 30.704 335.131 15.352 335.217 0H391V129.684Z" fill="#0AABF0"/>
<path d="M391 64.842C388.09 64.539 385.179 64.135 382.398 61.711C379.574 59.287 376.837 54.742 375.925 48.177C375.056 41.612 376.012 32.926 374.187 28.381C372.319 23.836 367.627 23.432 365.325 19.392C363.022 15.352 363.066 7.676 363.109 0H391V64.842Z" fill="#01B7FF"/>
<path d="M0 87.062C16.9868 135.239 33.9301 183.517 57.1729 196.748C80.4157 210.08 109.958 188.567 121.558 217.049C133.157 245.531 126.858 324.008 142.367 365.519C157.834 407.131 195.196 411.676 212.27 445.612C229.387 479.548 226.302 542.774 223.218 606H0V87.062Z" fill="#022D4B"/>
<path d="M0 151.904C14.858 194.122 29.716 236.239 50.048 247.955C70.38 259.57 96.186 240.784 106.352 265.63C116.518 290.577 111.001 359.257 124.555 395.617C138.11 431.977 170.78 436.017 185.768 465.711C200.713 495.405 198.02 550.652 195.326 606H0V151.904Z" fill="#074065"/>
<path d="M0 216.847C12.7292 252.904 25.4584 289.062 42.8797 299.061C60.3443 309.06 82.4576 292.9 91.1464 314.312C99.8788 335.623 95.1433 394.506 106.743 425.715C118.386 456.823 146.364 460.257 159.224 485.709C172.04 511.161 169.737 558.631 167.391 606H0V216.847Z" fill="#0D537F"/>
<path d="M0 281.689C10.6004 311.787 21.2009 341.885 35.7548 350.268C50.2652 358.55 68.7291 345.117 75.9843 362.893C83.2395 380.669 79.2861 429.755 88.9742 455.712C98.6623 481.669 121.992 484.598 132.679 505.808C143.367 527.018 141.455 566.509 139.5 606H0V281.689Z" fill="#12689A"/>
<path d="M0 346.531C8.47167 370.67 16.9868 394.708 28.5864 401.374C40.2296 408.04 54.9572 397.334 60.7788 411.575C66.5569 425.715 63.4289 465.004 71.162 485.81C78.9386 506.515 97.5762 508.838 106.135 525.806C114.693 542.774 113.173 574.387 111.609 606H0V346.531Z" fill="#147EB6"/>
<path d="M0 411.373C6.38633 429.452 12.7292 447.531 21.4616 452.581C30.1504 457.53 41.2288 449.45 45.5732 460.156C49.9177 470.862 47.5717 500.253 53.3932 515.807C59.2148 531.462 73.2039 533.179 79.5902 545.905C86.02 558.631 84.847 582.265 83.7174 606H0V411.373Z" fill="#1294D3"/>
<path d="M0 476.316C4.25756 488.335 8.47167 500.354 14.2932 503.687C20.1148 507.02 27.5003 501.667 30.3677 508.737C33.2784 515.908 31.7144 535.502 35.581 545.905C39.4476 556.308 48.7881 557.419 53.0891 565.903C57.3467 574.387 56.5647 590.244 55.7827 606H0V476.316Z" fill="#0AABF0"/>
<path d="M0 541.158C2.12878 547.117 4.25756 553.177 7.16833 554.894C10.0357 556.51 13.7284 553.783 15.2056 557.419C16.6392 560.954 15.8572 570.751 17.8122 575.902C19.7238 581.154 24.4158 581.76 26.5446 586.002C28.6733 590.244 28.2823 598.122 27.8913 606H0V541.158Z" fill="#01B7FF"/>
</g>
<defs>
<clipPath id="clip0_496_13">
<rect width="391" height="606" fill="white"/>
</clipPath>
</defs>
</svg>
