<svg width="846" height="1401" viewBox="0 0 846 1401" fill="none" xmlns="http://www.w3.org/2000/svg">
<path d="M844.14 1399.86C312.298 -522.786 1328.13 1612.3 130.795 109.843" stroke="#C2E632" stroke-width="3"/>
<ellipse cx="130.416" cy="58.6142" rx="2.72075" ry="28.0291" fill="#D7FF36"/>
<ellipse cx="81.9968" cy="108.138" rx="2.78281" ry="27.4041" transform="rotate(-90 81.9968 108.138)" fill="#D7FF36"/>
<ellipse cx="2.75195" cy="27.7183" rx="2.75195" ry="27.7183" transform="matrix(0.69909 -0.715034 0.69909 0.715034 74.8779 55.2676)" fill="#D7FF36"/>
<ellipse cx="2.75195" cy="27.7183" rx="2.75195" ry="27.7183" transform="matrix(0.69909 0.715034 -0.69909 0.715034 182.108 51.3319)" fill="#D7FF36"/>
<ellipse cx="130.416" cy="157.662" rx="2.72075" ry="28.0291" fill="#D7FF36"/>
<ellipse cx="178.835" cy="108.138" rx="2.78281" ry="27.4041" transform="rotate(-90 178.835 108.138)" fill="#D7FF36"/>
<ellipse cx="2.75195" cy="27.7183" rx="2.75195" ry="27.7183" transform="matrix(0.69909 -0.715034 0.69909 0.715034 143.354 125.305)" fill="#D7FF36"/>
<ellipse cx="2.75195" cy="27.7183" rx="2.75195" ry="27.7183" transform="matrix(0.69909 0.715034 -0.69909 0.715034 113.633 121.369)" fill="#D7FF36"/>
<ellipse cx="130.418" cy="108.138" rx="4.39857" ry="4.49889" fill="#D7FF36"/>
<rect x="71.0352" y="193.409" width="7.68336" height="7.8586" fill="#FF0000"/>
<rect x="239.024" y="14.8678" width="7.68336" height="7.8586" fill="#FF0000"/>
<rect x="174.994" y="206.286" width="7.68336" height="7.8586" fill="#00FF29"/>
<rect x="0.293945" y="82.7139" width="7.68336" height="7.8586" fill="#FF0000"/>
<rect x="101.718" y="0.900635" width="7.68336" height="7.8586" fill="#00FF29"/>
<rect x="160.812" y="14.8678" width="7.68336" height="7.8586" fill="#AD00FF"/>
<ellipse cx="81.9974" cy="37.5192" rx="3.84697" ry="3.93471" fill="#AD00FF"/>
<ellipse cx="46.8811" cy="133.568" rx="3.84697" ry="3.93471" fill="#AD00FF"/>
<ellipse cx="235.177" cy="84.0409" rx="3.84697" ry="3.93471" fill="#00FF29"/>
<ellipse cx="235.171" cy="137.502" rx="3.84697" ry="3.93471" fill="#FF0000"/>
</svg>
