<svg width="1480" height="1022" viewBox="0 0 1480 1022" fill="none" xmlns="http://www.w3.org/2000/svg">
<path d="M276.267 1066.29C321.677 1066.29 358.489 1028.16 358.489 981.12C358.489 934.084 321.677 895.953 276.267 895.953C230.857 895.953 194.044 934.084 194.044 981.12C194.044 1028.16 230.857 1066.29 276.267 1066.29Z" stroke="#01D1FF" stroke-width="2"/>
<path d="M935.689 986.23C937.506 986.23 938.978 984.705 938.978 982.823C938.978 980.942 937.506 979.417 935.689 979.417C933.873 979.417 932.4 980.942 932.4 982.823C932.4 984.705 933.873 986.23 935.689 986.23Z" stroke="#01D1FF" stroke-width="2"/>
<path d="M440.711 262.313C447.977 262.313 453.867 256.213 453.867 248.687C453.867 241.161 447.977 235.06 440.711 235.06C433.446 235.06 427.556 241.161 427.556 248.687C427.556 256.213 433.446 262.313 440.711 262.313Z" stroke="#01D1FF" stroke-width="2"/>
<path d="M1407.64 490.56C1444.88 490.56 1475.07 459.293 1475.07 420.723C1475.07 382.154 1444.88 350.887 1407.64 350.887C1370.41 350.887 1340.22 382.154 1340.22 420.723C1340.22 459.293 1370.41 490.56 1407.64 490.56Z" stroke="#01D1FF" stroke-width="2"/>
<path d="M675.867 541.66C701.296 541.66 721.911 520.307 721.911 493.966C721.911 467.626 701.296 446.273 675.867 446.273C650.437 446.273 629.822 467.626 629.822 493.966C629.822 520.307 650.437 541.66 675.867 541.66Z" stroke="#01D1FF" stroke-width="2"/>
<path d="M1133.02 718.806C1168.44 718.806 1197.16 689.065 1197.16 652.376C1197.16 615.688 1168.44 585.946 1133.02 585.946C1097.6 585.946 1068.89 615.688 1068.89 652.376C1068.89 689.065 1097.6 718.806 1133.02 718.806Z" stroke="#01D1FF" stroke-width="2"/>
<path d="M1154.4 202.696C1177.11 202.696 1195.51 183.631 1195.51 160.113C1195.51 136.595 1177.11 117.53 1154.4 117.53C1131.7 117.53 1113.29 136.595 1113.29 160.113C1113.29 183.631 1131.7 202.696 1154.4 202.696Z" stroke="#01D1FF" stroke-width="2"/>
<path d="M210.489 694.96C211.397 694.96 212.133 694.197 212.133 693.257C212.133 692.316 211.397 691.553 210.489 691.553C209.58 691.553 208.844 692.316 208.844 693.257C208.844 694.197 209.58 694.96 210.489 694.96Z" stroke="#01D1FF" stroke-width="2"/>
<path d="M514.711 710.29C525.609 710.29 534.444 701.138 534.444 689.85C534.444 678.561 525.609 669.41 514.711 669.41C503.812 669.41 494.978 678.561 494.978 689.85C494.978 701.138 503.812 710.29 514.711 710.29Z" stroke="#01D1FF" stroke-width="2"/>
<path d="M677.511 1008.37C712.931 1008.37 741.645 978.631 741.645 941.943C741.645 905.255 712.931 875.513 677.511 875.513C642.091 875.513 613.378 905.255 613.378 941.943C613.378 978.631 642.091 1008.37 677.511 1008.37Z" stroke="#01D1FF" stroke-width="2"/>
<path d="M1216.89 884.03C1247.77 884.03 1272.8 858.101 1272.8 826.116C1272.8 794.132 1247.77 768.203 1216.89 768.203C1186.01 768.203 1160.98 794.132 1160.98 826.116C1160.98 858.101 1186.01 884.03 1216.89 884.03Z" stroke="#01D1FF" stroke-width="2"/>
<path d="M756.445 291.833C793.681 291.833 823.867 260.566 823.867 221.996C823.867 183.427 793.681 152.16 756.445 152.16C719.208 152.16 689.022 183.427 689.022 221.996C689.022 260.566 719.208 291.833 756.445 291.833Z" stroke="#01D1FF" stroke-width="2"/>
<path d="M9.86688 216.323C33.4801 216.323 52.6224 196.496 52.6224 172.037C52.6224 147.578 33.4801 127.75 9.86688 127.75C-13.7464 127.75 -32.8887 147.578 -32.8887 172.037C-32.8887 196.496 -13.7464 216.323 9.86688 216.323Z" stroke="#01D1FF" stroke-width="2"/>
<path d="M1384.62 1062.88C1416.41 1062.88 1442.18 1036.19 1442.18 1003.26C1442.18 970.338 1416.41 943.646 1384.62 943.646C1352.83 943.646 1327.07 970.338 1327.07 1003.26C1327.07 1036.19 1352.83 1062.88 1384.62 1062.88Z" stroke="#01D1FF" stroke-width="2"/>
<path d="M154.578 275.94C156.394 275.94 157.867 274.415 157.867 272.533C157.867 270.652 156.394 269.126 154.578 269.126C152.762 269.126 151.289 270.652 151.289 272.533C151.289 274.415 152.762 275.94 154.578 275.94Z" stroke="#01D1FF" stroke-width="2"/>
<path d="M812.355 858.48C835.968 858.48 855.111 838.652 855.111 814.193C855.111 789.734 835.968 769.906 812.355 769.906C788.742 769.906 769.6 789.734 769.6 814.193C769.6 838.652 788.742 858.48 812.355 858.48Z" stroke="#01D1FF" stroke-width="2"/>
<path d="M1381.33 732.433C1385.87 732.433 1389.56 728.62 1389.56 723.917C1389.56 719.213 1385.87 715.4 1381.33 715.4C1376.79 715.4 1373.11 719.213 1373.11 723.917C1373.11 728.62 1376.79 732.433 1381.33 732.433Z" stroke="#01D1FF" stroke-width="2"/>
<path d="M246.666 115.827C252.116 115.827 256.533 111.251 256.533 105.607C256.533 99.9624 252.116 95.3867 246.666 95.3867C241.217 95.3867 236.8 99.9624 236.8 105.607C236.8 111.251 241.217 115.827 246.666 115.827Z" stroke="#01D1FF" stroke-width="2"/>
<path d="M1024.49 533.143C1054.46 533.143 1078.76 507.977 1078.76 476.933C1078.76 445.889 1054.46 420.723 1024.49 420.723C994.519 420.723 970.223 445.889 970.223 476.933C970.223 507.977 994.519 533.143 1024.49 533.143Z" stroke="#01D1FF" stroke-width="2"/>
<path d="M1356.67 277.643C1380.28 277.643 1399.42 257.815 1399.42 233.356C1399.42 208.898 1380.28 189.07 1356.67 189.07C1333.05 189.07 1313.91 208.898 1313.91 233.356C1313.91 257.815 1333.05 277.643 1356.67 277.643Z" stroke="#01D1FF" stroke-width="2"/>
<path d="M1134.67 1057.77C1167.36 1057.77 1193.87 1030.32 1193.87 996.45C1193.87 962.584 1167.36 935.13 1134.67 935.13C1101.97 935.13 1075.47 962.584 1075.47 996.45C1075.47 1030.32 1101.97 1057.77 1134.67 1057.77Z" stroke="#01D1FF" stroke-width="2"/>
<path d="M55.9112 957.273C60.4522 957.273 64.1334 953.46 64.1334 948.756C64.1334 944.053 60.4522 940.24 55.9112 940.24C51.3702 940.24 47.689 944.053 47.689 948.756C47.689 953.46 51.3702 957.273 55.9112 957.273Z" stroke="#01D1FF" stroke-width="2"/>
<path d="M499.326 95.3865C520.215 95.3865 537.148 77.8465 537.148 56.2099C537.148 34.5732 520.215 17.0332 499.326 17.0332C478.437 17.0332 461.504 34.5732 461.504 56.2099C461.504 77.8465 478.437 95.3865 499.326 95.3865Z" stroke="#01D1FF" stroke-width="2"/>
<path d="M922.533 132.86C926.166 132.86 929.111 129.81 929.111 126.047C929.111 122.284 926.166 119.233 922.533 119.233C918.9 119.233 915.955 122.284 915.955 126.047C915.955 129.81 918.9 132.86 922.533 132.86Z" stroke="#01D1FF" stroke-width="2"/>
<path d="M881.423 669.41C895.046 669.41 906.089 657.97 906.089 643.86C906.089 629.749 895.046 618.31 881.423 618.31C867.8 618.31 856.756 629.749 856.756 643.86C856.756 657.97 867.8 669.41 881.423 669.41Z" stroke="#01D1FF" stroke-width="2"/>
<path d="M350.267 562.1C379.329 562.1 402.889 537.696 402.889 507.593C402.889 477.49 379.329 453.086 350.267 453.086C321.204 453.086 297.645 477.49 297.645 507.593C297.645 537.696 321.204 562.1 350.267 562.1Z" stroke="#01D1FF" stroke-width="2"/>
<path d="M832.089 453.087C852.977 453.087 869.911 435.547 869.911 413.91C869.911 392.273 852.977 374.733 832.089 374.733C811.2 374.733 794.267 392.273 794.267 413.91C794.267 435.547 811.2 453.087 832.089 453.087Z" stroke="#01D1FF" stroke-width="2"/>
<path d="M458.8 1054.36C499.669 1054.36 532.8 1020.05 532.8 977.713C532.8 935.38 499.669 901.063 458.8 901.063C417.931 901.063 384.8 935.38 384.8 977.713C384.8 1020.05 417.931 1054.36 458.8 1054.36Z" stroke="#01D1FF" stroke-width="2"/>
<path d="M42.7557 616.606C74.5428 616.606 100.311 589.915 100.311 556.99C100.311 524.064 74.5428 497.373 42.7557 497.373C10.9687 497.373 -14.7998 524.064 -14.7998 556.99C-14.7998 589.915 10.9687 616.606 42.7557 616.606Z" stroke="#01D1FF" stroke-width="2"/>
<path d="M1292.53 119.233C1332.49 119.233 1364.89 85.6784 1364.89 44.2865C1364.89 2.89461 1332.49 -30.6602 1292.53 -30.6602C1252.57 -30.6602 1220.18 2.89461 1220.18 44.2865C1220.18 85.6784 1252.57 119.233 1292.53 119.233Z" stroke="#01D1FF" stroke-width="2"/>
<path d="M1016.27 330.447C1038.06 330.447 1055.73 312.144 1055.73 289.567C1055.73 266.989 1038.06 248.687 1016.27 248.687C994.47 248.687 976.8 266.989 976.8 289.567C976.8 312.144 994.47 330.447 1016.27 330.447Z" stroke="#01D1FF" stroke-width="2"/>
<path d="M1463.56 112.42C1498.07 112.42 1526.04 83.4405 1526.04 47.693C1526.04 11.9454 1498.07 -17.0337 1463.56 -17.0337C1429.04 -17.0337 1401.07 11.9454 1401.07 47.693C1401.07 83.4405 1429.04 112.42 1463.56 112.42Z" stroke="#01D1FF" stroke-width="2"/>
<path d="M11.5113 790.347C41.4819 790.347 65.778 765.181 65.778 734.137C65.778 703.093 41.4819 677.927 11.5113 677.927C-18.4594 677.927 -42.7554 703.093 -42.7554 734.137C-42.7554 765.181 -18.4594 790.347 11.5113 790.347Z" stroke="#01D1FF" stroke-width="2"/>
<path d="M1281.02 608.09C1315.53 608.09 1343.51 579.111 1343.51 543.363C1343.51 507.616 1315.53 478.637 1281.02 478.637C1246.51 478.637 1218.53 507.616 1218.53 543.363C1218.53 579.111 1246.51 608.09 1281.02 608.09Z" stroke="#01D1FF" stroke-width="2"/>
<path d="M356.845 855.073C378.641 855.073 396.311 836.77 396.311 814.193C396.311 791.616 378.641 773.313 356.845 773.313C335.048 773.313 317.378 791.616 317.378 814.193C317.378 836.77 335.048 855.073 356.845 855.073Z" stroke="#01D1FF" stroke-width="2"/>
<path d="M519.644 419.02C525.093 419.02 529.511 414.444 529.511 408.8C529.511 403.156 525.093 398.58 519.644 398.58C514.195 398.58 509.777 403.156 509.777 408.8C509.777 414.444 514.195 419.02 519.644 419.02Z" stroke="#01D1FF" stroke-width="2"/>
<path d="M1221.82 398.58C1246.34 398.58 1266.22 377.989 1266.22 352.59C1266.22 327.19 1246.34 306.6 1221.82 306.6C1197.3 306.6 1177.42 327.19 1177.42 352.59C1177.42 377.989 1197.3 398.58 1221.82 398.58Z" stroke="#01D1FF" stroke-width="2"/>
<path d="M1022.84 821.007C1026.48 821.007 1029.42 817.956 1029.42 814.193C1029.42 810.43 1026.48 807.38 1022.84 807.38C1019.21 807.38 1016.27 810.43 1016.27 814.193C1016.27 817.956 1019.21 821.007 1022.84 821.007Z" stroke="#01D1FF" stroke-width="2"/>
<path d="M713.689 17.0333C718.23 17.0333 721.911 13.2203 721.911 8.51667C721.911 3.81304 718.23 0 713.689 0C709.148 0 705.467 3.81304 705.467 8.51667C705.467 13.2203 709.148 17.0333 713.689 17.0333Z" stroke="#01D1FF" stroke-width="2"/>
<path d="M684.089 752.873C726.774 752.873 761.378 717.031 761.378 672.816C761.378 628.602 726.774 592.76 684.089 592.76C641.403 592.76 606.8 628.602 606.8 672.816C606.8 717.031 641.403 752.873 684.089 752.873Z" stroke="#01D1FF" stroke-width="2"/>
<path d="M1.64442 410.503C33.4315 410.503 59.2 383.812 59.2 350.887C59.2 317.961 33.4315 291.27 1.64442 291.27C-30.1426 291.27 -55.9111 317.961 -55.9111 350.887C-55.9111 383.812 -30.1426 410.503 1.64442 410.503Z" stroke="#01D1FF" stroke-width="2"/>
</svg>
