<svg width="386" height="487" viewBox="0 0 386 487" fill="none" xmlns="http://www.w3.org/2000/svg">
<path d="M386.001 485.397C-97.4248 74.1783 304.88 651.136 156.525 131.206" stroke="#C2E632" stroke-width="3"/>
<ellipse cx="156.142" cy="69.5589" rx="3.25959" ry="33.5801" fill="#D7FF36"/>
<ellipse cx="98.135" cy="128.891" rx="3.33393" ry="32.8313" transform="rotate(-90 98.135 128.891)" fill="#D7FF36"/>
<ellipse cx="3.29697" cy="33.2078" rx="3.29697" ry="33.2078" transform="matrix(0.69909 -0.715034 0.69909 0.715034 89.6064 65.5496)" fill="#D7FF36"/>
<ellipse cx="3.29697" cy="33.2078" rx="3.29697" ry="33.2078" transform="matrix(0.69909 0.715034 -0.69909 0.715034 218.073 60.8344)" fill="#D7FF36"/>
<ellipse cx="156.142" cy="188.223" rx="3.25959" ry="33.5801" fill="#D7FF36"/>
<ellipse cx="214.152" cy="128.891" rx="3.33393" ry="32.8313" transform="rotate(-90 214.152 128.891)" fill="#D7FF36"/>
<ellipse cx="3.29697" cy="33.2078" rx="3.29697" ry="33.2078" transform="matrix(0.69909 -0.715034 0.69909 0.715034 171.643 149.457)" fill="#D7FF36"/>
<ellipse cx="3.29697" cy="33.2078" rx="3.29697" ry="33.2078" transform="matrix(0.69909 0.715034 -0.69909 0.715034 136.036 144.743)" fill="#D7FF36"/>
<ellipse cx="156.146" cy="128.891" rx="5.26969" ry="5.38988" fill="#D7FF36"/>
<rect x="85.002" y="231.049" width="9.20502" height="9.41496" fill="#FF0000"/>
<rect x="286.261" y="17.1487" width="9.20502" height="9.41496" fill="#FF0000"/>
<rect x="209.55" y="246.477" width="9.20502" height="9.41496" fill="#00FF29"/>
<rect x="0.250977" y="98.4315" width="9.20502" height="9.41496" fill="#FF0000"/>
<rect x="121.762" y="0.415405" width="9.20502" height="9.41496" fill="#00FF29"/>
<rect x="192.561" y="17.1487" width="9.20502" height="9.41496" fill="#AD00FF"/>
<ellipse cx="98.1352" cy="44.2862" rx="4.60884" ry="4.71396" fill="#AD00FF"/>
<ellipse cx="56.0639" cy="159.357" rx="4.60884" ry="4.71396" fill="#AD00FF"/>
<ellipse cx="281.653" cy="100.021" rx="4.60884" ry="4.71396" fill="#00FF29"/>
<ellipse cx="281.645" cy="164.071" rx="4.60884" ry="4.71396" fill="#FF0000"/>
</svg>
