<svg width="84" height="93" viewBox="0 0 84 93" fill="none" xmlns="http://www.w3.org/2000/svg">
<g clip-path="url(#clip0_468_38)">
<rect y="0.0112305" width="84" height="92" rx="42" fill="white"/>
<path d="M15.4774 41.7447V77.3609H9.58041V41.7447H15.4774ZM12.5959 28.3887C13.4894 28.3887 14.2712 28.6987 14.9414 29.3189C15.6562 29.8948 16.0135 30.8251 16.0135 32.1098C16.0135 33.3501 15.6562 34.2804 14.9414 34.9006C14.2712 35.5208 13.4894 35.8309 12.5959 35.8309C11.6131 35.8309 10.7866 35.5208 10.1165 34.9006C9.44639 34.2804 9.11133 33.3501 9.11133 32.1098C9.11133 30.8251 9.44639 29.8948 10.1165 29.3189C10.7866 28.6987 11.6131 28.3887 12.5959 28.3887Z" fill="#FF7D31"/>
<path d="M34.7645 77.3608L21.1611 41.7446H27.4602L35.0996 62.7422C35.457 63.7166 35.8367 64.8021 36.2388 65.9982C36.6409 67.1942 36.9983 68.3462 37.311 69.4535C37.6237 70.5167 37.8471 71.4246 37.9811 72.1779H38.2491C38.4279 71.4246 38.6736 70.4943 38.9863 69.387C39.3437 68.2797 39.7234 67.1278 40.1255 65.9317C40.5722 64.7357 40.952 63.6725 41.2647 62.7422L48.904 41.7446H55.2029L41.5327 77.3608H34.7645Z" fill="url(#paint0_linear_468_38)"/>
<path d="M63.0973 77.3608L49.4941 41.7446H55.793L63.4324 62.7422C63.7899 63.7166 64.1695 64.8021 64.5716 65.9982C64.9736 67.1942 65.3312 68.3462 65.6438 69.4535C65.9568 70.5167 66.1799 71.4246 66.3139 72.1779H66.5819C66.761 71.4246 67.0065 70.4943 67.3191 69.387C67.6766 68.2797 68.0562 67.1278 68.4583 65.9317C68.9053 64.7357 69.2849 63.6725 69.5975 62.7422L77.2368 41.7446H83.5359L69.8655 77.3608H63.0973Z" fill="url(#paint1_linear_468_38)"/>
<path d="M15.4776 41.7449H16.5247V40.7067H15.4776V41.7449ZM15.4776 77.3611V78.3993H16.5247V77.3611H15.4776ZM9.58059 77.3611H8.53354V78.3993H9.58059V77.3611ZM9.58059 41.7449V40.7067H8.53354V41.7449H9.58059ZM14.9415 29.3191L14.2271 30.0781L14.2534 30.1024L14.2813 30.1249L14.9415 29.3191ZM14.9415 34.9007L14.252 34.1194L14.2394 34.1304L14.2271 34.1417L14.9415 34.9007ZM10.1167 34.9007L10.8311 34.1417L10.1167 34.9007ZM10.1167 29.3191L10.8025 30.1037L10.817 30.0912L10.8311 30.0781L10.1167 29.3191ZM14.4306 41.7449V77.3611H16.5247V41.7449H14.4306ZM15.4776 76.3228H9.58059V78.3993H15.4776V76.3228ZM10.6277 77.3611V41.7449H8.53354V77.3611H10.6277ZM9.58059 42.7832H15.4776V40.7067H9.58059V42.7832ZM12.5961 29.4271C13.2169 29.4271 13.7453 29.6322 14.2271 30.0781L15.656 28.5601C14.7976 27.7656 13.7624 27.3506 12.5961 27.3506V29.4271ZM14.2813 30.1249C14.6633 30.4327 14.9667 31.0046 14.9667 32.1099H17.0608C17.0608 30.6459 16.6494 29.3573 15.6018 28.5133L14.2813 30.1249ZM14.9667 32.1099C14.9667 33.1516 14.673 33.7542 14.252 34.1194L15.6311 35.6821C16.6397 34.807 17.0608 33.5491 17.0608 32.1099H14.9667ZM14.2271 34.1417C13.7453 34.5876 13.2169 34.7928 12.5961 34.7928V36.8693C13.7624 36.8693 14.7976 36.4542 15.656 35.6598L14.2271 34.1417ZM12.5961 34.7928C11.8575 34.7928 11.2926 34.5688 10.8311 34.1417L9.40228 35.6598C10.2811 36.4731 11.3691 36.8693 12.5961 36.8693V34.7928ZM10.8311 34.1417C10.4419 33.7815 10.1586 33.1712 10.1586 32.1099H8.06445C8.06445 33.5294 8.45134 34.7797 9.40228 35.6598L10.8311 34.1417ZM10.1586 32.1099C10.1586 30.9846 10.4514 30.4054 10.8025 30.1037L9.43097 28.5345C8.44176 29.3846 8.06445 30.666 8.06445 32.1099H10.1586ZM10.8311 30.0781C11.2926 29.6511 11.8575 29.4271 12.5961 29.4271V27.3506C11.3691 27.3506 10.2811 27.7468 9.40228 28.5601L10.8311 30.0781ZM34.7645 77.3611L33.7853 77.7286L34.0414 78.3993H34.7645V77.3611ZM21.1611 41.7449V40.7067H19.6449L20.1819 42.1127L21.1611 41.7449ZM27.4602 41.7449L28.4451 41.3926L28.1956 40.7067H27.4602V41.7449ZM35.0995 62.7425L34.1146 63.095L34.1155 63.0971L35.0995 62.7425ZM36.2387 65.9985L35.2454 66.3265L36.2387 65.9985ZM37.3109 69.4538L36.3026 69.7336L36.3042 69.7393L36.3057 69.7445L37.3109 69.4538ZM37.9811 72.1781L36.9499 72.3588L37.1026 73.2164H37.9811V72.1781ZM38.2491 72.1781V73.2164H39.0784L39.2683 72.4159L38.2491 72.1781ZM38.9862 69.3873L37.989 69.0706L37.9831 69.0888L37.9779 69.1075L38.9862 69.3873ZM40.1254 65.932L39.1435 65.5712L39.1376 65.5873L39.1321 65.6039L40.1254 65.932ZM41.2646 62.7425L40.2797 62.39L40.2753 62.402L40.2713 62.4144L41.2646 62.7425ZM48.9039 41.7449V40.7067H48.1686L47.919 41.3926L48.9039 41.7449ZM55.2028 41.7449L56.1818 42.1142L56.7221 40.7067H55.2028V41.7449ZM41.5326 77.3611V78.3993H42.2545L42.5112 77.7302L41.5326 77.3611ZM35.7437 76.9935L22.1403 41.3772L20.1819 42.1127L33.7853 77.7286L35.7437 76.9935ZM21.1611 42.7832H27.4602V40.7067H21.1611V42.7832ZM26.4753 42.0972L34.1146 63.095L36.0845 62.39L28.4451 41.3926L26.4753 42.0972ZM34.1155 63.0971C34.4691 64.0616 34.8457 65.1377 35.2454 66.3265L37.2321 65.6704C36.8276 64.467 36.4448 63.3727 36.0835 62.3879L34.1155 63.0971ZM35.2454 66.3265C35.6426 67.5086 35.9949 68.6439 36.3026 69.7336L38.3192 69.174C38.0015 68.0485 37.639 66.8805 37.2321 65.6704L35.2454 66.3265ZM36.3057 69.7445C36.6121 70.7858 36.8247 71.6549 36.9499 72.3588L39.0122 71.9975C38.8693 71.1949 38.6352 70.248 38.3161 69.163L36.3057 69.7445ZM37.9811 73.2164H38.2491V71.1399H37.9811V73.2164ZM39.2683 72.4159C39.4425 71.6818 39.684 70.7666 39.9945 69.6671L37.9779 69.1075C37.663 70.2226 37.4131 71.1679 37.2299 71.9404L39.2683 72.4159ZM39.9835 69.704C40.3395 68.6003 40.7179 67.4525 41.1187 66.2601L39.1321 65.6039C38.7288 66.8036 38.3478 67.9592 37.989 69.0706L39.9835 69.704ZM41.1073 66.2928C41.5569 65.0889 41.9407 64.0144 42.2579 63.0706L40.2713 62.4144C39.9631 63.3312 39.5874 64.3829 39.1435 65.5712L41.1073 66.2928ZM42.2496 63.095L49.8889 42.0972L47.919 41.3926L40.2797 62.39L42.2496 63.095ZM48.9039 42.7832H55.2028V40.7067H48.9039V42.7832ZM54.2244 41.3756L40.5541 76.992L42.5112 77.7302L56.1818 42.1142L54.2244 41.3756ZM41.5326 76.3228H34.7645V78.3993H41.5326V76.3228ZM63.0977 77.3611L62.1187 77.7286L62.3747 78.3993H63.0977V77.3611ZM49.4945 41.7449V40.7067H47.9783L48.5153 42.1127L49.4945 41.7449ZM55.7934 41.7449L56.7787 41.3926L56.5289 40.7067H55.7934V41.7449ZM63.4327 62.7425L62.448 63.095L62.449 63.0971L63.4327 62.7425ZM64.5719 65.9985L63.5788 66.3265L64.5719 65.9985ZM65.6441 69.4538L64.6363 69.7336L64.6374 69.7393L64.6389 69.7445L65.6441 69.4538ZM66.3142 72.1781L65.2834 72.3588L65.4357 73.2164H66.3142V72.1781ZM66.5823 72.1781V73.2164H67.4115L67.6016 72.4159L66.5823 72.1781ZM67.3194 69.3873L66.3226 69.0706L66.3163 69.0888L66.3116 69.1075L67.3194 69.3873ZM68.4586 65.932L67.477 65.5712L67.4712 65.5873L67.4655 65.6039L68.4586 65.932ZM69.5978 62.7425L68.613 62.39L68.6089 62.402L68.6047 62.4144L69.5978 62.7425ZM77.2371 41.7449V40.7067H76.5021L76.2524 41.3926L77.2371 41.7449ZM83.5363 41.7449L84.5153 42.1142L85.0555 40.7067H83.5363V41.7449ZM69.8659 77.3611V78.3993H70.5878L70.8448 77.7302L69.8659 77.3611ZM64.0772 76.9935L50.4737 41.3772L48.5153 42.1127L62.1187 77.7286L64.0772 76.9935ZM49.4945 42.7832H55.7934V40.7067H49.4945V42.7832ZM54.8086 42.0972L62.448 63.095L64.418 62.39L56.7787 41.3926L54.8086 42.0972ZM62.449 63.0971C62.8024 64.0616 63.1793 65.1377 63.5788 66.3265L65.5656 65.6704C65.1609 64.467 64.7782 63.3727 64.417 62.3879L62.449 63.0971ZM63.5788 66.3265C63.9761 67.5086 64.3285 68.6439 64.6363 69.7336L66.6524 69.174C66.3346 68.0485 65.9724 66.8805 65.5656 65.6704L63.5788 66.3265ZM64.6389 69.7445C64.9457 70.7858 65.1583 71.6549 65.2834 72.3588L67.3456 71.9975C67.2027 71.1949 66.9686 70.248 66.6493 69.163L64.6389 69.7445ZM66.3142 73.2164H66.5823V71.1399H66.3142V73.2164ZM67.6016 72.4159C67.7759 71.6818 68.0173 70.7666 68.3277 69.6671L66.3116 69.1075C65.9964 70.2226 65.7467 71.1679 65.5635 71.9404L67.6016 72.4159ZM68.3167 69.704C68.6727 68.6003 69.0512 67.4525 69.4523 66.2601L67.4655 65.6039C67.0623 66.8036 66.6812 67.9592 66.3226 69.0706L68.3167 69.704ZM69.4407 66.2928C69.8905 65.0889 70.2742 64.0144 70.5915 63.0706L68.6047 62.4144C68.2963 63.3312 67.9209 64.3829 67.477 65.5712L69.4407 66.2928ZM70.5831 63.095L78.2224 42.0972L76.2524 41.3926L68.613 62.39L70.5831 63.095ZM77.2371 42.7832H83.5363V40.7067H77.2371V42.7832ZM82.5578 41.3756L68.8874 76.992L70.8448 77.7302L84.5153 42.1142L82.5578 41.3756ZM69.8659 76.3228H63.0977V78.3993H69.8659V76.3228Z" fill="white"/>
<path d="M51.117 48.2898H53.0857C54.4678 44.8428 55.7243 42.6417 60.9177 35.5816C64.4358 30.8056 65.4829 28.0231 65.4829 25.0745C65.4829 21.4199 62.216 18.4297 58.6142 18.4297C55.9756 18.4297 53.5883 19.7587 52.0805 22.4581C50.6144 19.7587 48.2271 18.4297 45.6304 18.4297C41.9448 18.4297 38.7617 21.4199 38.7617 25.0745C38.7617 28.1062 40.0182 31.0548 43.3269 35.5401C48.4784 42.5587 49.6511 44.6352 51.117 48.2898ZM52.0805 44.6767C50.9076 42.2679 49.1067 39.4024 46.6775 36.163C44.2483 32.8821 42.6987 30.5149 42.0704 29.0614C41.4422 27.6078 41.1071 26.2789 41.1071 25.0745C41.1071 22.7073 43.2431 20.7554 45.6304 20.7554C47.934 20.7554 49.9862 22.5412 51.0332 26.2789H53.1695C54.1328 22.8319 56.185 20.7554 58.6142 20.7554C61.0433 20.7554 63.1375 22.7073 63.1375 25.0745C63.1375 26.3204 62.8024 27.6909 62.1323 29.1444C61.4622 30.598 59.9125 33.0483 57.4415 36.4122C54.9704 39.7761 53.1276 42.5587 52.0805 44.6767Z" fill="url(#paint2_linear_468_38)"/>
<path d="M51.1171 48.2899L50.6306 48.4817L50.7619 48.809H51.1171V48.2899ZM53.0858 48.2899V48.809H53.4407L53.5721 48.4817L53.0858 48.2899ZM60.9178 35.5817L60.4948 35.2755V35.2758L60.9178 35.5817ZM52.0806 22.4582L51.6194 22.7043L52.0738 23.5412L52.5382 22.7097L52.0806 22.4582ZM43.327 35.5402L43.7503 35.2346L43.7495 35.2337L43.327 35.5402ZM52.0806 44.6768L51.6089 44.9024L52.0769 45.8634L52.5502 44.9053L52.0806 44.6768ZM46.6776 36.1631L46.2556 36.4703L46.2574 36.4729L46.6776 36.1631ZM42.0705 29.0615L42.5517 28.857L42.0705 29.0615ZM51.0333 26.279L50.5289 26.4179L50.6354 26.7981H51.0333V26.279ZM53.1695 26.279V26.7981H53.5674L53.6737 26.4176L53.1695 26.279ZM57.4415 36.4123L57.018 36.1066L57.4415 36.4123ZM51.1171 48.809H53.0858V47.7708H51.1171V48.809ZM53.5721 48.4817C54.9291 45.0968 56.1542 42.9381 61.3403 35.8876L60.4948 35.2758C55.294 42.3455 54.0061 44.589 52.5989 48.0981L53.5721 48.4817ZM61.3403 35.8879C64.8846 31.0766 66.0065 28.185 66.0065 25.0746H64.9594C64.9594 27.8615 63.9867 30.5348 60.4948 35.2755L61.3403 35.8879ZM66.0065 25.0746C66.0065 21.1128 62.4842 17.9106 58.6143 17.9106V18.9489C61.9476 18.9489 64.9594 21.727 64.9594 25.0746H66.0065ZM58.6143 17.9106C55.7752 17.9106 53.2177 19.3506 51.6225 22.2067L52.5382 22.7097C53.9585 20.1668 56.1757 18.9489 58.6143 18.9489V17.9106ZM52.5413 22.2121C50.9882 19.3518 48.4281 17.9106 45.6305 17.9106V18.9489C48.0263 18.9489 50.2409 20.1656 51.6194 22.7043L52.5413 22.2121ZM45.6305 17.9106C41.6726 17.9106 38.2383 21.1168 38.2383 25.0746H39.2853C39.2853 21.7231 42.2171 18.9489 45.6305 18.9489V17.9106ZM38.2383 25.0746C38.2383 28.2732 39.5748 31.333 42.9044 35.8466L43.7495 35.2337C40.4618 30.7768 39.2853 27.9393 39.2853 25.0746H38.2383ZM42.9037 35.8457C48.0466 42.8524 49.189 44.8875 50.6306 48.4817L51.6037 48.098C50.1134 44.3829 48.9104 42.2651 43.7503 35.2346L42.9037 35.8457ZM52.5518 44.4511C51.3602 42.0036 49.5393 39.1093 47.0977 35.8533L46.2574 36.4729C48.6741 39.6955 50.455 42.5325 51.6089 44.9024L52.5518 44.4511ZM47.0995 35.8559C44.6665 32.5698 43.1529 30.2479 42.5517 28.857L41.5893 29.2659C42.2446 30.7822 43.8302 33.1946 46.2556 36.4703L47.0995 35.8559ZM42.5517 28.857C41.9407 27.4432 41.6308 26.1859 41.6308 25.0746H40.5837C40.5837 26.372 40.9438 27.7726 41.5893 29.2659L42.5517 28.857ZM41.6308 25.0746C41.6308 23.019 43.5066 21.2746 45.6305 21.2746V20.2363C42.9799 20.2363 40.5837 22.3957 40.5837 25.0746H41.6308ZM45.6305 21.2746C47.5951 21.2746 49.5118 22.7872 50.5289 26.4179L51.5377 26.14C50.4608 22.2953 48.273 20.2363 45.6305 20.2363V21.2746ZM51.0333 26.7981H53.1695V25.7598H51.0333V26.7981ZM53.6737 26.4176C54.6119 23.0616 56.5358 21.2746 58.6143 21.2746V20.2363C55.8343 20.2363 53.6533 22.6023 52.6649 26.1403L53.6737 26.4176ZM58.6143 21.2746C60.7764 21.2746 62.614 23.016 62.614 25.0746H63.6611C63.6611 22.3987 61.3099 20.2363 58.6143 20.2363V21.2746ZM62.614 25.0746C62.614 26.2292 62.303 27.5257 61.656 28.9287L62.6083 29.3604C63.3019 27.8562 63.6611 26.4118 63.6611 25.0746H62.614ZM61.656 28.9287C61.0094 30.3312 59.487 32.7455 57.018 36.1066L57.8646 36.7179C60.3377 33.3512 61.9146 30.865 62.6083 29.3604L61.656 28.9287ZM57.018 36.1066C54.5443 39.4741 52.6785 42.2872 51.6105 44.4482L52.5502 44.9053C53.5763 42.8303 55.3961 40.0783 57.8646 36.7179L57.018 36.1066Z" fill="white"/>
<path d="M50.3629 28.8453C50.3629 28.6543 50.4048 28.4757 50.4885 28.3096C51.1586 28.3677 51.6485 28.3968 51.9584 28.3968H56.4063C56.4817 28.4632 56.5487 28.5671 56.6073 28.7083C56.4314 29.0156 56.289 29.3894 56.1801 29.8296L56.1173 30.0414C55.9498 30.1161 55.7445 30.1535 55.5016 30.1535C55.577 29.8213 55.6147 29.5721 55.6147 29.406C55.6147 29.2398 55.5519 29.1319 55.4262 29.082H52.373C52.2139 30.4442 52.105 31.5032 52.0463 32.2591H54.8608C54.9949 32.0597 55.0954 31.8355 55.1624 31.5863C55.221 31.5614 55.3048 31.5489 55.4137 31.5489L55.6901 31.5987C55.5142 32.1469 55.3844 32.8488 55.3006 33.7043C55.2336 33.7375 55.1498 33.7542 55.0493 33.7542L54.8357 33.7168C54.8357 33.3845 54.8022 33.1063 54.7352 32.882H52.0086C51.9416 33.8289 51.8746 34.9461 51.8076 36.2335L52.8379 36.4204C52.8379 36.6114 52.796 36.79 52.7123 36.9561C52.017 36.898 51.527 36.8689 51.2424 36.8689C50.8403 36.8689 50.4089 36.8938 49.9482 36.9437L49.7598 36.9561C49.7598 36.7651 49.8017 36.5865 49.8854 36.4204C50.2205 36.3207 50.5053 36.1712 50.7398 35.9719C50.9576 34.1445 51.1461 31.8438 51.3052 29.0696L50.3629 28.8453Z" fill="#F0077B"/>
<path d="M50.3629 28.8453H50.1012V29.05L50.3018 29.0977L50.3629 28.8453ZM50.4886 28.3096L50.5114 28.051L50.334 28.0356L50.2544 28.1935L50.4886 28.3096ZM56.4063 28.3968L56.5807 28.2028L56.5058 28.1372H56.4063V28.3968ZM56.6074 28.7083L56.8351 28.8364L56.8979 28.7264L56.8498 28.6094L56.6074 28.7083ZM56.1802 29.8296L56.4315 29.9028L56.433 29.8972L56.4346 29.8914L56.1802 29.8296ZM56.1173 30.0414L56.2252 30.2781L56.3346 30.2291L56.3686 30.1146L56.1173 30.0414ZM55.5017 30.1535L55.2467 30.0965L55.1745 30.4131H55.5017V30.1535ZM55.4263 29.082L55.5237 28.8411L55.4771 28.8225H55.4263V29.082ZM52.3731 29.082V28.8225H52.1401L52.1134 29.0522L52.3731 29.082ZM52.0464 32.2591L51.7857 32.2392L51.7637 32.5187H52.0464V32.2591ZM54.8609 32.2591V32.5187H55.0012L55.0787 32.403L54.8609 32.2591ZM55.1624 31.5863L55.0593 31.3477L54.9425 31.3975L54.9096 31.5194L55.1624 31.5863ZM55.4137 31.5489L55.4608 31.2936L55.4373 31.2894H55.4137V31.5489ZM55.6901 31.5988L55.9399 31.6775L56.0299 31.3962L55.7373 31.3434L55.6901 31.5988ZM55.3006 33.7043L55.4179 33.9365L55.5472 33.8723L55.5614 33.7294L55.3006 33.7043ZM55.0493 33.7542L55.0038 34.0098L55.0268 34.0137H55.0493V33.7542ZM54.8357 33.7168H54.574V33.9346L54.7902 33.9724L54.8357 33.7168ZM54.7352 32.882L54.9865 32.8083L54.931 32.6225H54.7352V32.882ZM52.0087 32.882V32.6225H51.7647L51.748 32.8639L52.0087 32.882ZM51.8076 36.2335L51.5464 36.2201L51.5344 36.4478L51.7605 36.4888L51.8076 36.2335ZM52.838 36.4204H53.0997V36.204L52.8851 36.1651L52.838 36.4204ZM52.7123 36.9561L52.6903 37.2148L52.8673 37.2296L52.9469 37.0722L52.7123 36.9561ZM49.9483 36.9437L49.9657 37.2027L49.9712 37.2023L49.9767 37.2017L49.9483 36.9437ZM49.7598 36.9561H49.498V37.2336L49.7772 37.2151L49.7598 36.9561ZM49.8855 36.4204L49.8102 36.1718L49.7019 36.204L49.6513 36.3043L49.8855 36.4204ZM50.7399 35.9719L50.9102 36.1689L50.9878 36.103L50.9998 36.0024L50.7399 35.9719ZM51.3053 29.0696L51.5668 29.0843L51.5789 28.8678L51.3663 28.8172L51.3053 29.0696ZM50.6247 28.8453C50.6247 28.6934 50.6576 28.5547 50.7227 28.4257L50.2544 28.1935C50.1519 28.3967 50.1012 28.6152 50.1012 28.8453H50.6247ZM50.4657 28.5682C51.1368 28.6264 51.6365 28.6564 51.9584 28.6564V28.1372C51.6611 28.1372 51.1806 28.109 50.5114 28.051L50.4657 28.5682ZM51.9584 28.6564H56.4063V28.1372H51.9584V28.6564ZM56.2325 28.5908C56.2666 28.6209 56.3147 28.6849 56.3655 28.8071L56.8498 28.6094C56.7833 28.4492 56.6969 28.3056 56.5807 28.2028L56.2325 28.5908ZM56.3802 28.5802C56.1891 28.9132 56.0393 29.3105 55.9263 29.7678L56.4346 29.8914C56.5393 29.4682 56.6739 29.118 56.8351 28.8364L56.3802 28.5802ZM55.9294 29.7563L55.8666 29.9681L56.3686 30.1146L56.4315 29.9028L55.9294 29.7563ZM56.01 29.8047C55.8854 29.8604 55.7189 29.894 55.5017 29.894V30.4131C55.7702 30.4131 56.0147 30.3719 56.2252 30.2781L56.01 29.8047ZM55.7572 30.2105C55.8336 29.8748 55.8765 29.6023 55.8765 29.406H55.353C55.353 29.5419 55.3211 29.7678 55.2467 30.0965L55.7572 30.2105ZM55.8765 29.406C55.8765 29.292 55.8556 29.1751 55.7943 29.0707C55.7315 28.9623 55.6367 28.8858 55.5237 28.8411L55.3294 29.323C55.3373 29.3262 55.3399 29.3285 55.3399 29.3286C55.3404 29.3287 55.3404 29.3288 55.3404 29.3288C55.3404 29.3288 55.3404 29.3289 55.3404 29.3291C55.3404 29.3293 55.3409 29.3296 55.3409 29.3301C55.343 29.3337 55.353 29.3538 55.353 29.406H55.8765ZM55.4263 28.8225H52.3731V29.3416H55.4263V28.8225ZM52.1134 29.0522C51.9537 30.4155 51.8448 31.4784 51.7857 32.2392L52.3076 32.279C52.3657 31.5281 52.4741 30.473 52.6333 29.1119L52.1134 29.0522ZM52.0464 32.5187H54.8609V31.9995H52.0464V32.5187ZM55.0787 32.403C55.23 32.1784 55.3415 31.9277 55.4153 31.6532L54.9096 31.5194C54.8494 31.7433 54.7604 31.9411 54.6431 32.1151L55.0787 32.403ZM55.2656 31.8249C55.2766 31.8203 55.319 31.8085 55.4137 31.8085V31.2894C55.2912 31.2894 55.1661 31.3025 55.0593 31.3477L55.2656 31.8249ZM55.3671 31.8043L55.6436 31.8541L55.7373 31.3434L55.4608 31.2936L55.3671 31.8043ZM55.4409 31.5201C55.2572 32.092 55.1253 32.8135 55.0404 33.6793L55.5614 33.7294C55.6441 32.8841 55.7713 32.2019 55.9399 31.6775L55.4409 31.5201ZM55.1839 33.4722C55.1635 33.4823 55.1226 33.4946 55.0493 33.4946V34.0137C55.1776 34.0137 55.3043 33.9928 55.4179 33.9365L55.1839 33.4722ZM55.0949 33.4986L54.8813 33.4612L54.7902 33.9724L55.0038 34.0098L55.0949 33.4986ZM55.0975 33.7168C55.0975 33.3691 55.063 33.0642 54.9865 32.8083L54.4845 32.9558C54.542 33.1484 54.574 33.4 54.574 33.7168H55.0975ZM54.7352 32.6225H52.0087V33.1416H54.7352V32.6225ZM51.748 32.8639C51.6804 33.8128 51.6134 34.9317 51.5464 36.2201L52.0694 36.2469C52.1364 34.9605 52.2029 33.8451 52.2699 32.9002L51.748 32.8639ZM51.7605 36.4888L52.7908 36.6757L52.8851 36.1651L51.8548 35.9782L51.7605 36.4888ZM52.5762 36.4204C52.5762 36.5724 52.5432 36.711 52.4783 36.8401L52.9469 37.0722C53.0489 36.869 53.0997 36.6505 53.0997 36.4204H52.5762ZM52.7343 36.6975C52.0396 36.6394 51.5396 36.6094 51.2424 36.6094V37.1285C51.515 37.1285 51.9951 37.1566 52.6903 37.2148L52.7343 36.6975ZM51.2424 36.6094C50.8296 36.6094 50.3886 36.635 49.9199 36.6856L49.9767 37.2017C50.4293 37.1527 50.8512 37.1285 51.2424 37.1285V36.6094ZM49.9308 36.6847L49.7424 36.6972L49.7772 37.2151L49.9657 37.2027L49.9308 36.6847ZM50.0216 36.9561C50.0216 36.8042 50.0545 36.6655 50.1196 36.5365L49.6513 36.3043C49.5488 36.5075 49.498 36.726 49.498 36.9561H50.0216ZM49.9606 36.669C50.3261 36.5603 50.6445 36.3948 50.9102 36.1689L50.5695 35.7748C50.3661 35.9476 50.1149 36.0812 49.8102 36.1718L49.9606 36.669ZM50.9998 36.0024C51.2184 34.1679 51.4071 31.8614 51.5668 29.0843L51.0439 29.0548C50.8849 31.8261 50.6968 34.1213 50.4799 35.9414L50.9998 36.0024ZM51.3663 28.8172L50.424 28.5929L50.3018 29.0977L51.2442 29.322L51.3663 28.8172Z" fill="white"/>
<path d="M48.9942 32.2437H48.7324V32.7628H48.9942V32.2437ZM51.3175 32.7628C51.4621 32.7628 51.5794 32.6466 51.5794 32.5032C51.5794 32.3599 51.4621 32.2437 51.3175 32.2437V32.7628ZM48.9942 32.7628H51.3175V32.2437H48.9942V32.7628Z" fill="#F0077B"/>
<path d="M48.418 32.0039H50.6615" stroke="white" stroke-linecap="square"/>
<path d="M48.4189 33.0171H50.5474" stroke="white" stroke-linecap="square"/>
<path d="M48.4189 32.9759V32.0415" stroke="white" stroke-linecap="square"/>
</g>
<defs>
<linearGradient id="paint0_linear_468_38" x1="43.7043" y1="8.83621" x2="41.959" y2="77.3616" gradientUnits="userSpaceOnUse">
<stop offset="0.588455" stop-color="#0B75C0"/>
<stop offset="0.99375" stop-color="#902A8F"/>
</linearGradient>
<linearGradient id="paint1_linear_468_38" x1="66.7966" y1="41.5411" x2="66.7966" y2="77.3608" gradientUnits="userSpaceOnUse">
<stop stop-color="#F0077B"/>
<stop offset="0.269791" stop-color="#38B44D"/>
</linearGradient>
<linearGradient id="paint2_linear_468_38" x1="52.1271" y1="19.9974" x2="52.1271" y2="48.2898" gradientUnits="userSpaceOnUse">
<stop offset="0.722916" stop-color="#F0077B"/>
<stop offset="1" stop-color="#38B44D"/>
</linearGradient>
<clipPath id="clip0_468_38">
<rect y="0.0112305" width="84" height="92" rx="42" fill="white"/>
</clipPath>
</defs>
</svg>
