<svg width="1474" height="460" viewBox="0 0 1474 460" fill="none" xmlns="http://www.w3.org/2000/svg">
<path d="M0.653809 347.913L35.8348 338.073C71.0158 328.063 141.378 308.383 211.413 299.221C281.611 290.229 351.318 291.926 421.517 313.982C491.551 336.037 561.913 378.452 631.948 392.873C702.146 407.294 771.854 393.721 842.052 369.969C912.087 346.217 982.449 312.285 1052.48 318.223C1122.68 324.161 1192.39 369.969 1262.59 400.168C1332.62 430.537 1402.98 445.127 1438.17 452.592L1473.35 459.888V0.114014H1438.17C1402.98 0.114014 1332.62 0.114014 1262.59 0.114014C1192.39 0.114014 1122.68 0.114014 1052.48 0.114014C982.449 0.114014 912.087 0.114014 842.052 0.114014C771.854 0.114014 702.146 0.114014 631.948 0.114014C561.913 0.114014 491.551 0.114014 421.517 0.114014C351.318 0.114014 281.611 0.114014 211.413 0.114014C141.378 0.114014 71.0158 0.114014 35.8348 0.114014H0.653809V347.913Z" fill="url(#paint0_radial_491_103)"/>
<defs>
<radialGradient id="paint0_radial_491_103" cx="0" cy="0" r="1" gradientUnits="userSpaceOnUse" gradientTransform="translate(737 230.001) rotate(-90) scale(229.887 736.346)">
<stop stop-color="#0D95DD"/>
<stop offset="1" stop-color="#0D95DD" stop-opacity="0"/>
</radialGradient>
</defs>
</svg>
